<?xml version="1.0" encoding="UTF-8"?>
<svg id="_レイヤー_2" data-name="レイヤー 2" xmlns="http://www.w3.org/2000/svg" viewBox="0 0 396.87 340.53">
  <defs>
    <style>
      .cls-1 {
        fill-rule: evenodd;
      }

      .cls-1, .cls-2 {
        fill: #fff;
      }
    </style>
  </defs>
  <g id="logo">
    <g>
      <g>
        <g>
          <rect class="cls-2" x="132.27" y="250.84" width="2.62" height="15.26"/>
          <path class="cls-2" d="M146.2,255.52c-.68-.41-1.45-.62-2.32-.62-.51,0-.99.07-1.43.22-.44.15-.86.37-1.25.67-.23.17-.43.37-.63.59v-1.24h-2.42v10.97h2.49v-6.11c0-.54.12-1.02.35-1.45.23-.43.56-.76.97-1,.41-.24.88-.36,1.38-.36s.98.12,1.36.36c.39.24.68.57.87.99.2.42.29.91.29,1.46v6.11h2.49v-6.45c0-.9-.19-1.71-.57-2.43-.38-.72-.9-1.29-1.58-1.7Z"/>
          <path class="cls-2" d="M154.49,252.24h-2.49v2.9h-1.79v2.29h1.79v5.06c0,.73.15,1.36.45,1.91.3.55.73.97,1.29,1.27s1.21.45,1.95.45h1.48v-2.29h-.96c-.54,0-.96-.16-1.26-.47-.31-.31-.46-.74-.46-1.28v-4.64h2.68v-2.29h-2.68v-2.9Z"/>
          <path class="cls-2" d="M167.47,255.78c-.93-.59-1.96-.88-3.07-.88-1.02,0-1.96.24-2.83.73-.87.49-1.57,1.17-2.08,2.04s-.77,1.86-.77,2.97.26,2.09.77,2.95c.52.87,1.21,1.54,2.08,2.03s1.82.73,2.83.73c1.28,0,2.37-.32,3.28-.96.91-.64,1.57-1.5,2-2.57h-2.53c-.19.32-.41.59-.68.81s-.56.38-.91.49c-.34.11-.72.16-1.14.16-.65,0-1.22-.15-1.7-.45-.48-.3-.85-.72-1.11-1.28-.15-.31-.24-.66-.31-1.03h8.61c.23-1.21.12-2.32-.35-3.34-.47-1.02-1.16-1.82-2.09-2.41ZM161.59,258.7c.25-.54.62-.97,1.1-1.28.48-.31,1.05-.46,1.7-.46s1.19.14,1.66.41.82.65,1.07,1.12c.17.32.26.67.32,1.04h-6.12c.06-.3.15-.58.27-.84Z"/>
          <path class="cls-2" d="M175.96,255.5c-.46.24-.88.57-1.25.98v-1.34h-2.42v10.97h2.49v-5.87c0-.58.13-1.09.39-1.54s.61-.79,1.06-1.04.93-.37,1.45-.37h1.29v-2.29h-.87c-.79,0-1.49.16-2.13.49Z"/>
          <path class="cls-2" d="M188.98,255.52c-.68-.41-1.45-.62-2.32-.62-.51,0-.99.07-1.43.22-.44.15-.86.37-1.25.67-.23.17-.43.37-.63.59v-1.24h-2.42v10.97h2.49v-6.11c0-.54.12-1.02.35-1.45.23-.43.56-.76.97-1,.41-.24.88-.36,1.38-.36s.98.12,1.36.36c.39.24.68.57.87.99.2.42.29.91.29,1.46v6.11h2.49v-6.45c0-.9-.19-1.71-.57-2.43-.38-.72-.9-1.29-1.58-1.7Z"/>
          <path class="cls-2" d="M202.42,256.45c-.21-.23-.42-.45-.67-.63-.4-.3-.85-.53-1.36-.69-.51-.15-1.06-.23-1.66-.23-.96,0-1.86.25-2.71.74s-1.53,1.18-2.05,2.05c-.52.87-.77,1.85-.77,2.94s.26,2.05.77,2.93c.52.88,1.2,1.56,2.05,2.05s1.76.73,2.71.73c.9,0,1.69-.17,2.37-.51.5-.25.94-.59,1.32-1.02v1.29h2.42v-10.97h-2.42v1.31ZM202.02,262.37c-.3.52-.71.93-1.22,1.23-.52.31-1.09.46-1.71.46s-1.2-.15-1.71-.46c-.52-.3-.92-.71-1.22-1.23-.3-.52-.45-1.09-.45-1.73s.15-1.22.45-1.74c.3-.52.71-.94,1.22-1.24.52-.31,1.09-.46,1.71-.46s1.2.15,1.71.46c.52.3.92.72,1.22,1.24.3.52.45,1.1.45,1.74s-.15,1.22-.45,1.73Z"/>
          <path class="cls-2" d="M211.36,252.24h-2.49v2.9h-1.79v2.29h1.79v5.06c0,.73.15,1.36.45,1.91.3.55.73.97,1.29,1.27s1.21.45,1.95.45h1.48v-2.29h-.96c-.54,0-.96-.16-1.26-.47-.31-.31-.46-.74-.46-1.28v-4.64h2.68v-2.29h-2.68v-2.9Z"/>
          <rect class="cls-2" x="216.66" y="250.69" width="2.68" height="2.4"/>
          <rect class="cls-2" x="216.77" y="255.14" width="2.49" height="10.97"/>
          <path class="cls-2" d="M230.23,255.63c-.89-.49-1.86-.73-2.91-.73s-2.02.24-2.92.73c-.9.49-1.62,1.17-2.16,2.04s-.81,1.86-.81,2.97.27,2.09.81,2.95c.54.87,1.26,1.54,2.16,2.03s1.88.73,2.92.73,2.02-.24,2.91-.73,1.61-1.16,2.15-2.03c.54-.86.81-1.85.81-2.95s-.27-2.09-.81-2.97c-.54-.87-1.25-1.55-2.15-2.04ZM230.24,262.37c-.29.52-.69.93-1.21,1.23-.52.31-1.09.46-1.71.46s-1.2-.15-1.71-.46c-.52-.3-.92-.71-1.22-1.23-.3-.52-.45-1.09-.45-1.73s.15-1.22.45-1.74c.3-.52.71-.94,1.22-1.24.52-.31,1.09-.46,1.71-.46s1.2.15,1.71.46c.52.3.92.72,1.21,1.24.29.52.44,1.1.44,1.74s-.15,1.22-.44,1.73Z"/>
          <path class="cls-2" d="M243.42,255.52c-.68-.41-1.45-.62-2.32-.62-.51,0-.99.07-1.43.22-.44.15-.86.37-1.25.67-.23.17-.43.37-.63.59v-1.24h-2.42v10.97h2.49v-6.11c0-.54.12-1.02.35-1.45.23-.43.56-.76.97-1,.41-.24.88-.36,1.38-.36s.98.12,1.36.36c.39.24.68.57.87.99.2.42.29.91.29,1.46v6.11h2.49v-6.45c0-.9-.19-1.71-.57-2.43-.38-.72-.9-1.29-1.58-1.7Z"/>
          <path class="cls-2" d="M256.87,256.45c-.21-.23-.42-.45-.67-.63-.4-.3-.85-.53-1.36-.69-.51-.15-1.06-.23-1.66-.23-.96,0-1.86.25-2.71.74s-1.53,1.18-2.05,2.05c-.52.87-.77,1.85-.77,2.94s.26,2.05.77,2.93c.52.88,1.2,1.56,2.05,2.05s1.76.73,2.71.73c.9,0,1.69-.17,2.37-.51.5-.25.94-.59,1.32-1.02v1.29h2.42v-10.97h-2.42v1.31ZM256.46,262.37c-.3.52-.71.93-1.22,1.23-.52.31-1.09.46-1.71.46s-1.2-.15-1.71-.46c-.52-.3-.92-.71-1.22-1.23-.3-.52-.45-1.09-.45-1.73s.15-1.22.45-1.74c.3-.52.71-.94,1.22-1.24.52-.31,1.09-.46,1.71-.46s1.2.15,1.71.46c.52.3.92.72,1.22,1.24.3.52.45,1.1.45,1.74s-.15,1.22-.45,1.73Z"/>
          <rect class="cls-2" x="262.49" y="250.41" width="2.49" height="15.7"/>
        </g>
        <g>
          <g>
            <path class="cls-2" d="M16.93,294.59c-1.3.86-2.81,1.29-4.52,1.29-1.55,0-2.98-.39-4.28-1.17-1.3-.78-2.33-1.83-3.07-3.17-.74-1.34-1.11-2.83-1.11-4.47s.37-3.14,1.11-4.47c.74-1.34,1.77-2.39,3.07-3.17,1.3-.78,2.73-1.17,4.28-1.17,1.65,0,3.12.43,4.44,1.29,1.31.86,2.31,2,3,3.44h4.04c-.57-1.69-1.42-3.16-2.54-4.4-1.12-1.25-2.45-2.21-3.98-2.88s-3.19-1.01-4.97-1.01c-2.26,0-4.34.54-6.24,1.61-1.9,1.07-3.4,2.56-4.51,4.46-1.11,1.9-1.66,4-1.66,6.31s.55,4.41,1.66,6.31c1.11,1.9,2.61,3.38,4.51,4.46,1.9,1.07,3.98,1.61,6.24,1.61,1.81,0,3.48-.34,5.02-1.01s2.87-1.63,3.98-2.88c1.11-1.25,1.96-2.71,2.55-4.4h-4.04c-.69,1.44-1.68,2.59-2.98,3.45Z"/>
            <polygon class="cls-2" points="35.32 293.54 29.99 281.92 25.98 281.92 33.43 297.68 29.75 305.92 33.56 305.92 44.29 281.92 40.41 281.92 35.32 293.54"/>
            <path class="cls-2" d="M60.65,282.69c-1.34-.77-2.76-1.15-4.27-1.15-1.42,0-2.67.28-3.75.84-.78.4-1.46.94-2.04,1.59v-9.59h-3.63v24.68h3.56v-2.12c.6.69,1.3,1.24,2.11,1.66,1.09.56,2.34.84,3.75.84,1.51,0,2.93-.38,4.27-1.15,1.34-.76,2.4-1.83,3.21-3.2.8-1.37,1.2-2.9,1.2-4.59s-.4-3.22-1.2-4.59c-.8-1.37-1.87-2.44-3.21-3.21ZM60.67,293.32c-.48.86-1.14,1.53-1.97,2.02-.83.49-1.77.74-2.79.74s-1.93-.25-2.78-.74c-.85-.49-1.51-1.17-1.99-2.02-.48-.86-.72-1.8-.72-2.83s.24-2,.72-2.84c.48-.85,1.14-1.51,1.99-2,.85-.49,1.77-.74,2.78-.74s1.96.25,2.79.74c.83.49,1.49,1.16,1.97,2s.72,1.79.72,2.84-.24,1.97-.72,2.83Z"/>
            <path class="cls-2" d="M81.1,282.9c-1.44-.9-3.03-1.35-4.76-1.35-1.6,0-3.07.38-4.42,1.15-1.35.77-2.42,1.83-3.22,3.19-.8,1.36-1.2,2.9-1.2,4.61s.4,3.25,1.2,4.61c.8,1.36,1.87,2.42,3.22,3.19,1.35.77,2.82,1.15,4.42,1.15,1.99,0,3.68-.5,5.09-1.49,1.41-.99,2.45-2.34,3.14-4.03h-3.74c-.32.53-.69.97-1.11,1.34-.42.37-.91.64-1.47.82-.56.18-1.18.27-1.87.27-1.07,0-2-.24-2.78-.72-.78-.48-1.37-1.17-1.78-2.06-.25-.54-.41-1.14-.51-1.78h13.64c.32-1.9.12-3.63-.6-5.19-.72-1.56-1.8-2.8-3.24-3.7ZM73.59,285.35c.78-.48,1.69-.72,2.74-.72s1.89.22,2.64.65c.75.43,1.34,1.03,1.75,1.8.28.53.47,1.11.57,1.73h-9.94c.1-.51.26-.99.46-1.42.41-.88,1.01-1.56,1.78-2.04Z"/>
            <path class="cls-2" d="M94,282.51c-.73.38-1.38.91-1.97,1.58v-2.16h-3.56v17.14h3.63v-9.29c0-.91.21-1.73.63-2.45.42-.72.99-1.27,1.7-1.66.71-.39,1.49-.58,2.33-.58h1.95v-3.36h-1.37c-1.23,0-2.35.26-3.34.79Z"/>
            <path class="cls-2" d="M111.37,289.79c-.8-.33-1.84-.65-3.12-.94-.87-.21-1.55-.39-2.04-.55-.49-.16-.9-.39-1.22-.69-.32-.3-.48-.67-.48-1.13,0-.55.25-.99.75-1.32.5-.33,1.15-.5,1.95-.5.89,0,1.62.22,2.19.65.57.43.88.98.93,1.65h3.56c-.02-1.03-.34-1.95-.94-2.78-.61-.82-1.4-1.47-2.38-1.94-.98-.47-2.06-.7-3.22-.7s-2.31.22-3.31.65c-.99.43-1.78,1.03-2.37,1.8-.58.77-.87,1.61-.87,2.52,0,1.21.29,2.17.87,2.86.58.7,1.27,1.21,2.06,1.53.79.32,1.83.63,3.14.93.87.21,1.55.39,2.06.55.5.16.91.39,1.23.7.32.31.48.71.48,1.22,0,.66-.29,1.17-.86,1.51s-1.31.51-2.23.51c-1.05,0-1.9-.23-2.54-.7-.64-.47-.99-1.06-1.06-1.77h-3.63c.07,1.07.41,2.03,1.01,2.88.61.85,1.44,1.51,2.52,1.99,1.07.48,2.3.72,3.67.72s2.47-.21,3.5-.63,1.83-1.03,2.42-1.83c.58-.8.87-1.75.87-2.84,0-1.19-.29-2.12-.87-2.81-.58-.69-1.27-1.19-2.07-1.53Z"/>
            <path class="cls-2" d="M130.63,282.9c-1.44-.9-3.03-1.35-4.76-1.35-1.6,0-3.07.38-4.42,1.15-1.35.77-2.42,1.83-3.22,3.19-.8,1.36-1.2,2.9-1.2,4.61s.4,3.25,1.2,4.61c.8,1.36,1.87,2.42,3.22,3.19,1.35.77,2.82,1.15,4.42,1.15,1.99,0,3.68-.5,5.09-1.49,1.41-.99,2.45-2.34,3.14-4.03h-3.74c-.32.53-.69.97-1.11,1.34-.42.37-.91.64-1.47.82-.56.18-1.18.27-1.87.27-1.07,0-2-.24-2.78-.72-.78-.48-1.37-1.17-1.78-2.06-.25-.54-.41-1.14-.51-1.78h13.64c.32-1.9.12-3.63-.6-5.19-.72-1.56-1.8-2.8-3.24-3.7ZM123.12,285.35c.78-.48,1.69-.72,2.74-.72s1.89.22,2.64.65c.75.43,1.34,1.03,1.75,1.8.28.53.47,1.11.57,1.73h-9.94c.1-.51.26-.99.46-1.42.41-.88,1.01-1.56,1.78-2.04Z"/>
            <path class="cls-2" d="M143.38,285.64c.82-.49,1.74-.74,2.74-.74s1.92.25,2.76.74c.83.49,1.5,1.19,2.01,2.11h3.77c-.39-1.3-1.02-2.42-1.89-3.36-.87-.94-1.88-1.64-3.03-2.12-1.15-.48-2.36-.72-3.62-.72-1.62,0-3.12.38-4.51,1.15-1.38.77-2.49,1.83-3.32,3.19-.83,1.36-1.25,2.9-1.25,4.61s.42,3.25,1.25,4.61c.83,1.36,1.94,2.42,3.32,3.19,1.38.77,2.88,1.15,4.51,1.15,1.26,0,2.46-.24,3.62-.72,1.15-.48,2.17-1.19,3.03-2.12.87-.94,1.5-2.04,1.89-3.33h-3.77c-.5.89-1.17,1.58-2.01,2.07-.83.49-1.75.74-2.76.74s-1.92-.25-2.74-.74-1.47-1.16-1.94-2c-.47-.85-.7-1.79-.7-2.85s.23-1.97.7-2.83c.47-.86,1.11-1.53,1.94-2.02Z"/>
            <path class="cls-2" d="M169.33,291.62c0,1.33-.38,2.4-1.13,3.22s-1.75,1.23-2.98,1.23c-.85,0-1.58-.19-2.19-.57-.62-.38-1.1-.9-1.44-1.58s-.51-1.45-.51-2.31v-9.7h-3.63v9.7c0,1.53.32,2.88.96,4.06.64,1.18,1.54,2.1,2.71,2.76,1.17.66,2.54.99,4.11.99s2.91-.33,4.08-.99c1.17-.66,2.07-1.58,2.71-2.76s.96-2.53.96-4.06v-9.7h-3.63v9.7Z"/>
            <path class="cls-2" d="M182.37,282.51c-.73.38-1.38.91-1.97,1.58v-2.16h-3.56v17.14h3.63v-9.29c0-.91.21-1.73.63-2.45.42-.72.99-1.27,1.7-1.66.71-.39,1.49-.58,2.33-.58h1.95v-3.36h-1.37c-1.23,0-2.35.26-3.34.79Z"/>
            <rect class="cls-2" x="189.72" y="281.92" width="3.63" height="17.14"/>
            <rect class="cls-2" x="189.55" y="275.03" width="3.98" height="3.67"/>
            <path class="cls-2" d="M202.95,277.36h-3.63v4.56h-2.78v3.33h2.78v8.26c0,1.1.23,2.07.69,2.91.46.85,1.11,1.5,1.97,1.95.86.46,1.86.69,3,.69h2.23v-3.36h-1.51c-.85,0-1.51-.25-2-.74-.49-.49-.74-1.16-.74-2.01v-7.71h4.25v-3.33h-4.25v-4.56Z"/>
            <polygon class="cls-2" points="223.18 281.92 218.09 293.54 212.76 281.92 208.75 281.92 216.2 297.68 212.52 305.92 216.32 305.92 227.05 281.92 223.18 281.92"/>
          </g>
          <g>
            <path class="cls-2" d="M250.56,294.59c-1.3.86-2.81,1.29-4.52,1.29-1.55,0-2.98-.39-4.28-1.17-1.3-.78-2.33-1.83-3.07-3.17-.74-1.34-1.11-2.83-1.11-4.47s.37-3.14,1.11-4.47c.74-1.34,1.77-2.39,3.07-3.17,1.3-.78,2.73-1.17,4.28-1.17,1.65,0,3.12.43,4.44,1.29,1.31.86,2.31,2,3,3.44h4.04c-.57-1.69-1.42-3.16-2.54-4.4-1.12-1.25-2.45-2.21-3.98-2.88s-3.19-1.01-4.97-1.01c-2.26,0-4.34.54-6.24,1.61-1.9,1.07-3.4,2.56-4.51,4.46-1.11,1.9-1.66,4-1.66,6.31s.55,4.41,1.66,6.31c1.11,1.9,2.61,3.38,4.51,4.46,1.9,1.07,3.98,1.61,6.24,1.61,1.81,0,3.48-.34,5.02-1.01s2.87-1.63,3.98-2.88c1.11-1.25,1.96-2.71,2.55-4.4h-4.04c-.69,1.44-1.68,2.59-2.98,3.45Z"/>
            <path class="cls-2" d="M273.61,282.52c-1.06-.65-2.28-.98-3.65-.98-.78,0-1.52.11-2.23.34s-1.37.58-1.97,1.05c-.34.26-.65.56-.94.9v-9.45h-3.63v24.68h3.63v-9.63c0-.87.19-1.65.58-2.33.39-.69.91-1.22,1.58-1.61.66-.39,1.41-.58,2.23-.58s1.58.19,2.21.57c.63.38,1.1.91,1.42,1.59.32.69.48,1.47.48,2.37v9.63h3.63v-10.08c0-1.39-.29-2.66-.87-3.79-.58-1.13-1.41-2.02-2.47-2.67Z"/>
            <path class="cls-2" d="M294.75,284.07c-.34-.39-.7-.75-1.1-1.05-.64-.48-1.37-.84-2.18-1.1-.81-.25-1.69-.38-2.62-.38-1.51,0-2.93.38-4.27,1.15s-2.41,1.83-3.21,3.21c-.8,1.37-1.2,2.9-1.2,4.59s.4,3.22,1.2,4.59c.8,1.37,1.87,2.44,3.21,3.2,1.34.77,2.76,1.15,4.27,1.15,1.42,0,2.67-.28,3.75-.84.81-.42,1.53-.98,2.14-1.67v2.14h3.53v-17.14h-3.53v2.15ZM294.09,293.34c-.48.85-1.14,1.51-1.97,2-.83.49-1.77.74-2.79.74s-1.93-.25-2.76-.74c-.83-.49-1.49-1.16-1.97-2s-.72-1.79-.72-2.85.24-1.97.72-2.83c.48-.86,1.14-1.53,1.97-2.02.83-.49,1.75-.74,2.76-.74s1.96.25,2.79.74c.83.49,1.49,1.17,1.97,2.02.48.86.72,1.8.72,2.83s-.24,2-.72,2.85Z"/>
            <rect class="cls-2" x="303.04" y="274.38" width="3.63" height="24.68"/>
            <rect class="cls-2" x="311.44" y="274.38" width="3.63" height="24.68"/>
            <path class="cls-2" d="M331.97,282.9c-1.44-.9-3.03-1.35-4.76-1.35-1.6,0-3.07.38-4.42,1.15-1.35.77-2.42,1.83-3.22,3.19-.8,1.36-1.2,2.9-1.2,4.61s.4,3.25,1.2,4.61c.8,1.36,1.87,2.42,3.22,3.19,1.35.77,2.82,1.15,4.42,1.15,1.99,0,3.68-.5,5.09-1.49,1.41-.99,2.45-2.34,3.14-4.03h-3.74c-.32.53-.69.97-1.11,1.34-.42.37-.91.64-1.47.82-.56.18-1.18.27-1.87.27-1.07,0-2-.24-2.78-.72-.78-.48-1.37-1.17-1.78-2.06-.25-.54-.41-1.14-.51-1.78h13.64c.32-1.9.12-3.63-.6-5.19-.72-1.56-1.8-2.8-3.24-3.7ZM324.46,285.35c.78-.48,1.69-.72,2.74-.72s1.89.22,2.64.65c.75.43,1.34,1.03,1.75,1.8.28.53.47,1.11.57,1.73h-9.94c.1-.51.26-.99.46-1.42.41-.88,1.01-1.56,1.78-2.04Z"/>
            <path class="cls-2" d="M351.7,282.52c-1.06-.65-2.28-.98-3.65-.98-.78,0-1.52.11-2.23.34s-1.37.58-1.97,1.05c-.36.28-.69.62-1.01.98v-1.99h-3.56v17.14h3.63v-9.63c0-.87.19-1.65.58-2.33.39-.69.91-1.22,1.58-1.61.66-.39,1.41-.58,2.23-.58s1.58.19,2.21.57c.63.38,1.1.91,1.42,1.59.32.69.48,1.47.48,2.37v9.63h3.63v-10.08c0-1.39-.29-2.66-.87-3.79-.58-1.13-1.41-2.02-2.47-2.67Z"/>
            <path class="cls-2" d="M372.45,284.1c-.35-.39-.71-.76-1.1-1.07-.62-.49-1.32-.86-2.11-1.11-.79-.25-1.65-.38-2.59-.38-1.51,0-2.9.35-4.18,1.06-1.28.71-2.31,1.71-3.08,3.02-.78,1.3-1.17,2.8-1.17,4.49s.39,3.19,1.17,4.49c.78,1.3,1.81,2.31,3.1,3.02,1.29.71,2.69,1.06,4.2,1.06,1.37,0,2.58-.27,3.63-.82.79-.41,1.46-.94,2.02-1.57v1.74c0,1.01-.2,1.9-.6,2.67-.4.78-.99,1.38-1.77,1.82-.78.43-1.71.65-2.81.65-.78,0-1.48-.12-2.11-.36-.63-.24-1.16-.58-1.59-1.01s-.79-.94-1.06-1.51h-3.67c.32,1.23.86,2.33,1.63,3.27.77.95,1.73,1.68,2.88,2.21,1.15.53,2.47.79,3.96.79,1.83,0,3.4-.38,4.73-1.15,1.33-.77,2.33-1.82,3.02-3.15s1.03-2.84,1.03-4.51v-15.84h-3.53v2.18ZM371.83,292.82c-.46.8-1.09,1.43-1.9,1.9-.81.47-1.72.7-2.73.7s-1.91-.23-2.73-.7c-.81-.47-1.44-1.1-1.89-1.9-.45-.8-.67-1.7-.67-2.71s.22-1.88.67-2.69c.45-.81,1.07-1.45,1.89-1.92.81-.47,1.72-.7,2.73-.7s1.91.23,2.73.7c.81.47,1.44,1.11,1.9,1.92.46.81.69,1.71.69,2.69s-.23,1.91-.69,2.71Z"/>
            <path class="cls-2" d="M396.12,286.6c-.72-1.56-1.8-2.8-3.24-3.7-1.44-.9-3.03-1.35-4.76-1.35-1.6,0-3.07.38-4.42,1.15-1.35.77-2.42,1.83-3.22,3.19-.8,1.36-1.2,2.9-1.2,4.61s.4,3.25,1.2,4.61c.8,1.36,1.87,2.42,3.22,3.19,1.35.77,2.82,1.15,4.42,1.15,1.99,0,3.68-.5,5.09-1.49,1.41-.99,2.45-2.34,3.14-4.03h-3.74c-.32.53-.69.97-1.11,1.34-.42.37-.91.64-1.47.82-.56.18-1.18.27-1.87.27-1.07,0-2-.24-2.78-.72-.78-.48-1.37-1.17-1.78-2.06-.25-.54-.41-1.14-.51-1.78h13.64c.32-1.9.12-3.63-.6-5.19ZM385.37,285.35c.78-.48,1.69-.72,2.74-.72s1.89.22,2.64.65c.75.43,1.34,1.03,1.75,1.8.28.53.47,1.11.57,1.73h-9.94c.1-.51.26-.99.46-1.42.41-.88,1.01-1.56,1.78-2.04Z"/>
          </g>
        </g>
        <g>
          <polygon class="cls-2" points="101.63 319.73 107.73 319.73 107.73 340.16 111.57 340.16 111.57 319.73 117.6 319.73 117.6 316.16 101.63 316.16 101.63 319.73"/>
          <path class="cls-2" d="M136.99,317.41c-1.91-1.08-4.02-1.63-6.32-1.63s-4.38.54-6.29,1.63c-1.91,1.09-3.42,2.57-4.54,4.46-1.12,1.88-1.68,3.98-1.68,6.29s.56,4.4,1.68,6.29c1.12,1.88,2.63,3.37,4.54,4.46,1.91,1.08,4,1.63,6.29,1.63s4.42-.54,6.32-1.63c1.91-1.09,3.42-2.57,4.54-4.46,1.12-1.89,1.68-3.98,1.68-6.29s-.56-4.41-1.68-6.29c-1.12-1.89-2.63-3.37-4.54-4.46ZM138.14,332.63c-.75,1.34-1.79,2.39-3.1,3.17-1.31.78-2.77,1.17-4.37,1.17s-3.02-.39-4.34-1.17c-1.31-.78-2.35-1.83-3.1-3.17-.75-1.34-1.13-2.83-1.13-4.47s.38-3.14,1.13-4.47c.75-1.34,1.79-2.39,3.1-3.17,1.31-.78,2.76-1.17,4.34-1.17s3.06.39,4.37,1.17c1.31.78,2.35,1.83,3.1,3.17.75,1.34,1.13,2.83,1.13,4.47s-.38,3.14-1.13,4.47Z"/>
          <polygon class="cls-2" points="164.63 316.16 160.04 316.16 150.82 327.03 150.82 316.16 146.98 316.16 146.98 340.16 150.82 340.16 150.82 328.87 160.52 340.16 165.42 340.16 154.69 327.75 164.63 316.16"/>
          <polygon class="cls-2" points="180.84 316.16 175.47 326.2 170.12 316.16 165.76 316.16 173.51 330.11 173.51 340.16 177.35 340.16 177.35 330.11 185.1 316.16 180.84 316.16"/>
          <path class="cls-2" d="M203.62,317.41c-1.91-1.08-4.02-1.63-6.32-1.63s-4.38.54-6.29,1.63c-1.91,1.09-3.42,2.57-4.54,4.46-1.12,1.88-1.68,3.98-1.68,6.29s.56,4.4,1.68,6.29c1.12,1.88,2.63,3.37,4.54,4.46,1.91,1.08,4,1.63,6.29,1.63s4.42-.54,6.32-1.63c1.91-1.09,3.42-2.57,4.54-4.46,1.12-1.89,1.68-3.98,1.68-6.29s-.56-4.41-1.68-6.29c-1.12-1.89-2.63-3.37-4.54-4.46ZM204.77,332.63c-.75,1.34-1.79,2.39-3.1,3.17-1.31.78-2.77,1.17-4.37,1.17s-3.02-.39-4.34-1.17c-1.31-.78-2.35-1.83-3.1-3.17-.75-1.34-1.13-2.83-1.13-4.47s.38-3.14,1.13-4.47c.75-1.34,1.79-2.39,3.1-3.17,1.31-.78,2.76-1.17,4.34-1.17s3.06.39,4.37,1.17c1.31.78,2.35,1.83,3.1,3.17.75,1.34,1.13,2.83,1.13,4.47s-.38,3.14-1.13,4.47Z"/>
          <path class="cls-2" d="M230.68,329.91c.91-.96,1.63-1.82,2.14-2.59s.89-1.5,1.11-2.21c.23-.71.34-1.45.34-2.23,0-1.46-.35-2.73-1.06-3.8-.71-1.07-1.66-1.89-2.85-2.45-1.19-.56-2.51-.84-3.98-.84s-2.82.3-4.01.89c-1.19.59-2.14,1.46-2.86,2.59-.72,1.13-1.11,2.44-1.18,3.92h3.91c.05-1.12.45-2.04,1.2-2.76.75-.72,1.73-1.08,2.91-1.08s2.15.34,2.88,1.01c.73.67,1.1,1.55,1.1,2.62,0,.48-.08.95-.24,1.41-.16.46-.43.97-.82,1.54-.39.57-.94,1.23-1.65,1.99l-9.19,9.8v2.43h16.42v-3.74h-10.29l6.11-6.51Z"/>
          <path class="cls-2" d="M251.49,317.28c-1.39-.99-2.99-1.49-4.8-1.49s-3.41.5-4.8,1.49c-1.39.99-2.47,2.43-3.24,4.3-.77,1.87-1.15,4.07-1.15,6.58s.38,4.71,1.15,6.58,1.85,3.31,3.24,4.3c1.39.99,2.99,1.49,4.8,1.49s3.4-.5,4.8-1.49c1.39-.99,2.47-2.43,3.24-4.3.77-1.87,1.15-4.07,1.15-6.58s-.38-4.71-1.15-6.58c-.77-1.87-1.85-3.31-3.24-4.3ZM251.27,332.86c-.45,1.33-1.06,2.34-1.85,3.05-.79.71-1.7,1.06-2.73,1.06s-1.94-.35-2.73-1.06c-.79-.71-1.41-1.72-1.85-3.05-.45-1.32-.67-2.89-.67-4.7s.22-3.37.67-4.7c.45-1.33,1.06-2.34,1.85-3.05.79-.71,1.7-1.06,2.73-1.06s1.94.35,2.73,1.06c.79.71,1.41,1.73,1.85,3.05.45,1.33.67,2.89.67,4.7s-.22,3.37-.67,4.7Z"/>
          <path class="cls-2" d="M270.99,329.91c.91-.96,1.63-1.82,2.14-2.59s.89-1.5,1.11-2.21c.23-.71.34-1.45.34-2.23,0-1.46-.35-2.73-1.06-3.8-.71-1.07-1.66-1.89-2.85-2.45-1.19-.56-2.51-.84-3.98-.84s-2.82.3-4.01.89c-1.19.59-2.14,1.46-2.86,2.59-.72,1.13-1.11,2.44-1.18,3.92h3.91c.05-1.12.45-2.04,1.2-2.76.75-.72,1.73-1.08,2.91-1.08s2.15.34,2.88,1.01c.73.67,1.1,1.55,1.1,2.62,0,.48-.08.95-.24,1.41-.16.46-.43.97-.82,1.54-.39.57-.94,1.23-1.65,1.99l-9.19,9.8v2.43h16.42v-3.74h-10.29l6.11-6.51Z"/>
          <path class="cls-2" d="M293.31,328.18c-.73-1.25-1.74-2.22-3.03-2.93-1.29-.71-2.73-1.06-4.3-1.06-.59,0-1.17.07-1.73.21-.23.06-.49.14-.75.24l1.21-4.9h8.85v-3.56h-11.72l-2.91,11.79,3.02,1.23c.5-.48,1.07-.86,1.71-1.13.64-.27,1.36-.41,2.16-.41.91,0,1.73.21,2.43.62s1.26.98,1.65,1.71c.39.73.58,1.52.58,2.37s-.19,1.66-.58,2.38c-.39.72-.94,1.29-1.65,1.7s-1.54.62-2.5.62c-.73,0-1.4-.14-2.01-.43-.61-.29-1.11-.67-1.53-1.15-.41-.48-.67-1.03-.79-1.65h-3.94c.11,1.3.55,2.46,1.32,3.48s1.77,1.81,3,2.38c1.23.57,2.58.86,4.04.86,1.69,0,3.19-.36,4.49-1.08,1.3-.72,2.31-1.7,3.02-2.95.71-1.25,1.06-2.63,1.06-4.17s-.37-2.92-1.1-4.17Z"/>
        </g>
      </g>
      <path class="cls-1" d="M312.6,104.15l-3.8-7.9-25.64,12.33-20.37-9.83,14.18-17.76h28.35v-8.77h-21.35l13.32-16.68-6.85-5.47-17.69,22.16h-22.67l5.06-22.1,25.55-12.3-3.8-7.9-19.24,9.26,4.77-20.81-8.55-1.96-6.33,27.64-20.43,9.83-5.03-22.11,17.68-22.16-6.85-5.47-13.31,16.69L214.86.02l-8.55,1.94,6.29,27.65-14.14,17.72-14.12-17.74,6.32-27.64-8.55-1.95-4.76,20.82-13.3-16.71-6.86,5.46,17.66,22.18-5.05,22.1-20.42-9.86-6.3-27.64-8.55,1.95,4.74,20.82-19.23-9.28-3.81,7.9,25.53,12.33,5.05,22.16h-22.62l-17.73-22.25-6.86,5.46,13.38,16.79h-21.47v8.77h28.45l14.1,17.69-20.38,9.81-25.63-12.36-3.81,7.9,19.34,9.32-19.34,9.31,3.8,7.9,25.64-12.34,20.38,9.82-14.11,17.68h-28.45s0,8.75,0,8.75h21.47s-13.39,16.79-13.39,16.79l6.85,5.47,17.74-22.24h22.62s-5.04,22.06-5.04,22.06l-25.64,12.33,3.8,7.9,19.34-9.3-4.78,20.93,8.55,1.95,6.34-27.74,20.39-9.8,5.03,22.06-17.76,22.23,6.85,5.47,13.39-16.77,4.77,20.93,8.55-1.95-6.32-27.74,14.12-17.68,14.1,17.69-6.35,27.73,8.55,1.96,4.79-20.92,13.38,16.79,6.86-5.47-17.73-22.25,5.05-22.05,20.38,9.82h0l6.31,27.75,8.55-1.94-4.76-20.93,19.34,9.32,3.81-7.9-25.63-12.36-5.02-22.06h22.62s0,.01,0,.01l17.72,22.26,6.86-5.46-13.37-16.79h0s21.47.01,21.47.01v-8.77s-28.45-.01-28.45-.01l-14.09-17.7,20.39-9.8,25.62,12.37,3.81-7.9-19.33-9.33,19.35-9.3ZM248.07,80.99h17.68l-11.06,13.85-8.81-4.26,2.2-9.59ZM245.47,106.39l-2.49-3.13.89-3.9,5.21,2.52-3.61,4.52ZM249.06,124.98l-5.21,2.51-.89-3.9,2.5-3.13,3.6,4.53ZM245.03,54.99l-3.95,17.23h-9.81l-2.17-9.56,15.93-7.67ZM237.78,86.67l-3.61-1.74-.9-3.94h5.8l-1.3,5.68ZM239.02,145.8h-5.79s.89-3.91.89-3.91l3.61-1.74,1.28,5.64ZM221,66.56l1.29,5.66h-4.02l-2.5-3.14,5.23-2.52ZM215.09,40.55l3.92,17.24-8.84,4.25-6.11-7.67,11.02-13.82ZM198.45,61.4l3.61,4.54-3.62,1.74-3.62-1.75,3.62-4.54ZM181.84,40.53l11.01,13.83-6.12,7.67-8.83-4.26,3.94-17.23ZM175.9,66.54l5.23,2.52-2.52,3.16h-4l1.3-5.68ZM167.8,62.63l-2.19,9.59h-9.79l-3.94-17.28,15.92,7.68ZM162.71,84.89l-3.61,1.74-1.29-5.64h5.79l-.89,3.9ZM163.59,145.76h-5.79s1.29-5.64,1.29-5.64l3.61,1.74.89,3.9ZM151.39,106.34l-3.61-4.53,5.21-2.51.89,3.9-2.5,3.13ZM153.88,123.53l-.89,3.9-5.21-2.51,3.61-4.52,2.5,3.13ZM131.19,80.99h17.63l2.18,9.54-8.82,4.25-10.99-13.79ZM123.8,113.36h0l15.89-7.65,6.1,7.66-6.1,7.65-15.88-7.66ZM148.81,145.75h-17.63s11-13.79,11-13.79l8.82,4.25-2.18,9.54ZM151.87,171.71l3.93-17.19h9.79s2.18,9.55,2.18,9.55l-15.89,7.64ZM175.87,160.17l-1.29-5.64h4s2.5,3.13,2.5,3.13l-5.21,2.51ZM181.79,186.13l-3.92-17.19,8.82-4.24,6.1,7.65-11,13.78ZM198.4,165.33l-3.61-4.52,3.61-1.74,3.61,1.74-3.61,4.52ZM214.99,186.15l-10.99-13.79,6.11-7.65,8.82,4.25-3.94,17.19ZM220.94,160.2l-5.21-2.51,2.5-3.13h4s-1.29,5.64-1.29,5.64ZM219.13,139.37l-13.32,6.41h-14.78s-13.32-6.43-13.32-6.43l-9.21-11.56-3.29-14.42,3.29-14.41,9.22-11.56,13.32-6.41h14.8l13.33,6.44,9.21,11.56,3.28,14.42-3.3,14.41-9.23,11.55ZM244.92,171.76l-15.88-7.66,2.19-9.54h9.79s3.91,17.2,3.91,17.2h0ZM265.64,145.81h-17.63s-2.17-9.55-2.17-9.55l8.82-4.24,10.98,13.8ZM257.17,121.08l-6.1-7.66,6.11-7.65,15.88,7.67-15.89,7.64Z"/>
    </g>
  </g>
</svg>