<?xml version="1.0" encoding="UTF-8"?>
<svg id="icc-logo" data-name="icc-logo" xmlns="http://www.w3.org/2000/svg" viewBox="0 0 342.52 340.16">
  <defs>
    <style>
      .cls-1 {
        fill: #fff;
        fill-rule: evenodd;
      }
    </style>
  </defs>
  <g id="logo">
    <path class="cls-1" d="M342.52,156.23l-5.7-11.85-38.46,18.5-30.56-14.75,21.27-26.64h42.53v-13.15h-32.03l19.99-25.03-10.28-8.21-26.54,33.23h-34.01l7.59-33.15,38.32-18.45-5.71-11.85-28.86,13.89,7.15-31.22-12.82-2.94-9.49,41.46-30.64,14.75-7.54-33.16,26.52-33.25-10.28-8.2-19.97,25.04L195.91.03l-12.83,2.92,9.43,41.47-21.21,26.58-21.18-26.61,9.47-41.46-12.82-2.93-7.13,31.22-19.95-25.06-10.29,8.19,26.49,33.28-7.57,33.15-30.62-14.78-9.45-41.47-12.83,2.92,7.12,31.23-28.84-13.92-5.72,11.85,38.3,18.49,7.58,33.24h-33.93l-26.6-33.38-10.29,8.2,20.07,25.18H10.91v13.15h42.68l21.15,26.54-30.57,14.72-38.44-18.54L0,156.05l29,13.98L0,184l5.71,11.85,38.45-18.51,30.57,14.74-21.16,26.53-42.68-.02v13.15s32.19.02,32.19.02l-20.08,25.17,10.28,8.2,26.62-33.36,33.93.02-7.56,33.08-38.46,18.5,5.7,11.86,29.02-13.95-7.17,31.39,12.82,2.93,9.51-41.61,30.58-14.7,7.54,33.08-26.63,33.35,10.28,8.21,20.09-25.16,7.16,31.39,12.83-2.92-9.48-41.61,21.17-26.51,21.15,26.54-9.53,41.6,12.82,2.94,7.19-31.38,20.07,25.18,10.29-8.2-26.6-33.38,7.58-33.07,30.56,14.74h0l9.46,41.62,12.83-2.92-7.14-31.4,29,13.98,5.71-11.85-38.44-18.53-7.52-33.09,33.93.02h0s26.58,33.39,26.58,33.39l10.29-8.19-20.05-25.19h0s32.2.02,32.2.02v-13.15s-42.67-.02-42.67-.02l-21.13-26.55,30.58-14.7,38.44,18.56,5.72-11.85-29-14,29.02-13.95ZM245.73,121.48h26.51l-16.59,20.77-13.22-6.38,3.3-14.39ZM241.82,159.58l-3.74-4.7,1.34-5.86,7.81,3.77-5.42,6.78ZM247.21,187.47l-7.82,3.76-1.33-5.86,3.75-4.69,5.41,6.79ZM241.17,82.48l-5.92,25.85h-14.71l-3.26-14.34,23.89-11.5ZM230.28,130.01l-5.41-2.61-1.34-5.91h8.71l-1.95,8.52ZM232.14,218.69h-8.68s1.34-5.86,1.34-5.86l5.41-2.6,1.92,8.46ZM205.12,99.84l1.93,8.49h-6.02l-3.75-4.71,7.84-3.78ZM196.25,60.83l5.88,25.85-13.25,6.38-9.16-11.51,16.53-20.73ZM171.3,92.1l5.42,6.81-5.43,2.61-5.42-2.62,5.43-6.81ZM146.38,60.8l16.51,20.74-9.17,11.5-13.25-6.39,5.91-25.85ZM137.47,99.81l7.84,3.78-3.78,4.74h-6.01l1.95-8.52ZM125.32,93.94l-3.29,14.39h-14.68l-5.91-25.92,23.88,11.53ZM117.69,127.34l-5.41,2.61-1.93-8.46h8.68l-1.34,5.86ZM119,218.64h-8.68s1.93-8.46,1.93-8.46l5.41,2.61,1.33,5.86ZM100.71,159.5l-5.41-6.79,7.82-3.76,1.34,5.86-3.75,4.7ZM104.45,185.3l-1.34,5.86-7.82-3.77,5.41-6.78,3.74,4.7ZM70.41,121.48h26.45l3.26,14.32-13.23,6.37-16.48-20.68ZM59.31,170.04h0l23.83-11.47,9.15,11.48-9.16,11.48-23.82-11.49ZM96.83,218.62h-26.45s16.49-20.69,16.49-20.69l13.22,6.38-3.27,14.31ZM101.43,257.57l5.89-25.78h14.68s3.26,14.32,3.26,14.32l-23.83,11.46ZM137.42,240.26l-1.93-8.46h6.01s3.74,4.7,3.74,4.7l-7.82,3.76ZM146.3,279.2l-5.88-25.79,13.23-6.36,9.15,11.48-16.5,20.67ZM171.22,247.99l-5.41-6.79,5.41-2.6,5.41,2.61-5.42,6.78ZM196.11,279.22l-16.48-20.68,9.16-11.47,13.22,6.38-5.9,25.78ZM205.02,240.29l-7.82-3.77,3.75-4.69h6.01s-1.94,8.46-1.94,8.46ZM202.31,209.06l-19.99,9.61h-22.18s-19.97-9.64-19.97-9.64l-13.82-17.34-4.93-21.62,4.94-21.62,13.83-17.34,19.98-9.62h22.2l20,9.66,13.81,17.35,4.92,21.63-4.95,21.62-13.84,17.33ZM241,257.64l-23.82-11.49,3.28-14.31h14.68s5.86,25.8,5.86,25.8h0ZM272.08,218.72h-26.45s-3.26-14.33-3.26-14.33l13.23-6.36,16.47,20.69ZM259.37,181.62l-9.14-11.49,9.16-11.47,23.82,11.5-23.84,11.46Z"/>
  </g>
</svg>
